<svg width="58" height="221" viewBox="0 0 58 221" fill="none" xmlns="http://www.w3.org/2000/svg">
<path d="M58 113.791C47.7035 114.105 42.5552 123.274 42.5552 141.299C42.5552 147.725 43.3768 156.424 45.0198 167.396C46.5534 178.524 47.3201 185.656 47.3201 188.79C47.3201 210.263 37.0784 221 16.5949 221C10.3513 221 5.31256 219.981 1.47875 217.944L2.30028 214.182C4.60056 215.279 6.79131 215.828 8.87252 215.828C14.7875 215.828 17.745 210.734 17.745 200.546C17.745 195.844 16.9783 186.439 15.4448 172.333C13.9112 158.383 13.1445 148.744 13.1445 143.415C13.1445 132.6 15.2804 124.92 19.5524 120.374C23.7148 115.986 30.8895 113.4 41.0765 112.616V112.146C31.3277 111.049 24.2625 108.149 19.881 103.447C15.39 98.9014 13.1445 91.0645 13.1445 79.9362C13.1445 75.0773 13.9112 65.1245 15.4448 50.0777C16.9783 35.1876 17.745 25.1564 17.745 19.9841C17.745 10.4231 14.5137 5.64255 8.05099 5.64255C5.64117 5.64255 3.23135 6.2695 0.821529 7.52341L0 3.7617C4.05288 1.25391 8.76298 -1.52588e-05 14.1303 -1.52588e-05C36.2568 -1.52588e-05 47.3201 11.3635 47.3201 34.0904C47.3201 36.5982 46.5534 43.7298 45.0198 55.4851C43.3768 67.3972 42.5552 76.4879 42.5552 82.7574C42.5552 100.626 47.7035 109.716 58 110.03V113.791Z" fill="#FFB800"/>
</svg>
