<svg width="55" height="55" viewBox="0 0 55 55" fill="none" xmlns="http://www.w3.org/2000/svg">
<path d="M55 27.5C55 42.6878 42.6878 55 27.5 55C12.3122 55 0 42.6878 0 27.5C0 12.3122 12.3122 0 27.5 0C42.6878 0 55 12.3122 55 27.5Z" fill="#FFB800"/>
<path d="M20.7969 29.543L20.6914 29.9062L20.2344 30.2344L19.3086 30.4336L18.6523 30.668L18.1953 30.7969L17.6914 30.9375L17.3164 31.0078L16.9531 31.125L16.5195 31.2422L16.0625 31.3477L15.582 31.5586L15.1953 31.6992L14.8203 31.7578L14.4805 31.7812L14.457 31.9219L15.1719 32.2852L15.8047 32.5195L15.9453 32.6133L16.4961 32.8594L16.8359 33.0469H17.1172L17.4336 33.2344L17.7148 33.3633L17.9844 33.5742L18.2773 33.6914L18.6289 34.1016V34.2773L18.4883 34.3945L18.2773 34.3711L18.0078 34.2188L17.6914 34.0312L17.4336 33.8438H17.2695L17.0469 33.7148L16.6836 33.5977L15.9219 33.293L15.582 33.1641L15.2773 33.0469L14.8438 32.9062L14.3867 32.7305L13.9297 32.6836L13.4961 32.5664L13.1562 32.5195L12.8984 32.4492L12.6992 32.5195H12.4414L12.2188 32.4961L12.0078 32.3555L11.8438 32.1562L11.7969 31.9219L11.8906 31.6289L12.0312 31.5117L12.3008 31.3711L12.6758 31.3008L13.0156 31.2773L13.3789 31.125L13.6602 31.0078L14.0469 30.8438L14.457 30.7148L14.8203 30.5273L15.2188 30.4102L16.707 29.9297L17.2109 29.7305L17.9844 29.6367L18.2422 29.4961L18.5352 29.2852L18.8281 29.1328L19.1562 29.0156L19.4492 28.8047L19.707 28.6289L19.9297 28.6055L20.2344 28.6289L20.5273 28.8516L20.668 29.1562L20.7969 29.543ZM19.332 34.7227L19.1562 34.8984H18.9922L18.6992 34.7812L18.6289 34.582L18.6992 34.3945L18.8516 34.3242L18.9922 34.3477L19.2031 34.4883L19.332 34.582V34.7227Z" fill="black"/>
<path d="M33.207 18.3164L33.1602 18.5508L33.0312 18.7969L32.8203 19.1484L32.5039 19.2773L32.2227 19.582L31.9297 20.0859L31.332 21.2344L30.4883 22.7227L29.9609 23.3555L29.7266 23.9531L29.4102 24.6211L29.0938 25.2188L28.8125 25.875L28.4492 26.5195L27.7344 27.6211L27.6406 27.9609L27.4648 28.1719L27.0312 28.9453L26.7031 29.5195L26.4102 29.9062L26.1758 30.4336L25.9766 30.8203L25.6484 31.5117L25.332 32.0625L24.9688 32.7656L24.6172 33.4805L24.418 33.9375L24.3008 34.3242L24.0547 34.6992L23.8203 35.1562L23.6562 35.6367L23.5039 36L23.3398 36.4336L23.1523 36.8203L22.8125 37.1719L22.5898 37.5117L22.4023 37.875L22.168 38.1562L21.8984 38.2031L21.8516 38.0391L21.875 37.7578L22.0859 37.2773L22.3789 36.6445L22.6484 36.0938L23.0469 35.543L23.3633 34.875L23.6797 34.1484L24.0312 33.4336L24.207 32.9531L24.6172 31.9219L25.0156 31.0547L25.3086 30.3164L25.6484 29.5898L26 28.875L26.3164 28.1016L26.7734 27.1172L27.5586 25.1484L27.8516 24.5977L28.1445 23.9531L28.3555 23.332L28.6953 22.8047L28.9297 22.3711L29.6094 21L30.1602 20.0625L30.4883 19.3945L30.5352 19.0781L30.6172 18.4805L30.5117 18.0234L30.3242 17.6836L30.3008 17.3555L30.5117 17.1328L30.9688 17.0391L31.3789 17.1094L31.5898 17.2852L31.8125 17.4258L32.0703 17.332L32.4336 17.4023L32.8203 17.5664L33.1602 17.8359L33.207 18.3164Z" fill="black"/>
<path d="M43.1094 31.4414L42.957 31.7227L42.7695 31.8516L42.5117 32.0156L42.1016 32.1328L41.7617 32.2031L41.3984 32.3789L41.1172 32.5195L40.6836 32.707L40.2734 32.8828L39.8867 33.0938L39.6289 33.1641L39.3828 33.3398L39.1484 33.4805L38.8555 33.5977L38.5508 33.7148L38.3047 33.8906L37.918 33.9844L37.543 34.0547L37.2266 34.2188L36.9336 34.4648L36.6289 34.6523L36.2656 34.7812L35.9492 35.0391L35.668 35.2266L35.4453 35.2617L35.1406 35.2852L34.8945 35.0625L34.7539 34.7812L34.7305 34.3945L34.8477 34.0312L35.3516 33.6445L36.3125 33.3633L37.0156 33.0703L37.4609 32.9297L37.8242 32.7656L38.0703 32.6836L38.375 32.5664L38.7383 32.4258L39.0547 32.332L39.4062 32.0391L39.6523 31.9453L40.0391 31.8516L40.3672 31.8281L40.4141 31.6523H40.2031L39.8633 31.6289L39.582 31.5352L39.2891 31.4883L38.7148 31.2188L38.375 31.125L38.1172 31.0078L37.8945 30.8672L37.4961 30.7148L37.1328 30.5977L36.8398 30.6211L36.5352 30.3867L36.2656 30.293L36.0078 30.0469L35.7148 29.9531L35.5273 29.707L35.4219 29.5664L35.5508 29.3086L35.7148 29.1797H35.9258L36.1719 29.332L36.4531 29.4961L36.6992 29.6367H36.8633L37.0625 29.7305L37.3906 29.8359L37.7305 29.9531L38.1406 30.0703L38.7383 30.2695L39.1484 30.3867L39.6055 30.5039H40.0391L40.4609 30.5742L40.8008 30.6445L41.1406 30.8672L41.5273 30.7969L41.7852 30.9375L42.0547 30.9844L42.2422 30.9141L42.5117 30.8906H42.7227L42.8867 31.0078L43.0625 31.1953L43.1094 31.4414Z" fill="black"/>
</svg>
