<svg width="58" height="221" viewBox="0 0 58 221" fill="none" xmlns="http://www.w3.org/2000/svg">
<path d="M0 107.209C10.2965 106.895 15.4448 97.7259 15.4448 79.7011C15.4448 73.2748 14.6232 64.5759 12.9802 53.6043C11.4466 42.4759 10.6799 35.3443 10.6799 32.2096C10.6799 10.7365 20.9216 0 41.4051 0C47.6487 0 52.6874 1.0188 56.5212 3.05639L55.6997 6.81808C53.3994 5.72092 51.2087 5.17234 49.1275 5.17234C43.2125 5.17234 40.255 10.2663 40.255 20.4543C40.255 25.1564 41.0217 34.5606 42.5552 48.667C44.0888 62.6167 44.8555 72.256 44.8555 77.5851C44.8555 88.4 42.7196 96.0801 38.4476 100.626C34.2852 105.014 27.1105 107.6 16.9235 108.384V108.854C26.6723 109.951 33.7375 112.851 38.119 117.553C42.61 122.099 44.8555 129.935 44.8555 141.064C44.8555 145.923 44.0888 155.876 42.5552 170.922C41.0217 185.812 40.255 195.844 40.255 201.016C40.255 210.577 43.4863 215.357 49.949 215.357C52.3588 215.357 54.7687 214.73 57.1785 213.477L58 217.238C53.9471 219.746 49.237 221 43.8697 221C21.7432 221 10.6799 209.637 10.6799 186.91C10.6799 184.402 11.4466 177.27 12.9802 165.515C14.6232 153.603 15.4448 144.512 15.4448 138.243C15.4448 120.374 10.2965 111.284 0 110.97V107.209Z" fill="#FFB800"/>
</svg>
