<svg width="63" height="71" viewBox="0 0 63 71" fill="none" xmlns="http://www.w3.org/2000/svg">
<path d="M58.0698 62.8051C59.2891 61.8668 60.1073 60.7139 60.5242 59.3464C60.9655 57.9601 60.6764 56.6124 59.6568 55.3036C58.6183 53.9704 57.3132 53.3465 55.7414 53.4318C54.1939 53.4983 52.283 53.9995 50.0087 54.9355C47.7399 55.8284 46.0276 56.4094 44.872 56.6784C43.7407 56.9286 42.5516 57.0295 41.3047 56.9811C38.8109 56.8841 36.5349 55.5147 34.4769 52.8727C32.7965 50.7154 32.1202 48.2701 32.4483 45.5365C32.8006 42.7842 34.3181 40.376 37.0008 38.3117C38.2933 37.3171 39.7856 36.4789 41.4778 35.797C43.1755 35.0722 44.1951 34.5784 44.5365 34.3157C44.8779 34.0529 44.9939 33.576 44.8846 32.8848L45.287 32.5751L51.264 39.7224L50.6787 40.1728C47.8655 38.9648 45.3217 38.2279 43.0473 37.9621C40.7785 37.6533 38.888 38.0806 37.376 39.2441C35.8884 40.3888 35.0038 41.6317 34.7222 42.9726C34.4217 44.2894 34.7246 45.5295 35.6309 46.6929C36.5183 47.8321 37.6952 48.3415 39.1616 48.2211C40.6335 48.0576 42.2399 47.6162 43.9809 46.8968C45.7218 46.1775 46.8684 45.7216 47.4207 45.5292C47.9973 45.3181 48.7187 45.0925 49.5849 44.8525C50.4566 44.5694 51.213 44.4138 51.8541 44.3856C52.5008 44.3145 53.2257 44.3188 54.029 44.3985C54.8377 44.4352 55.5744 44.6049 56.2392 44.9075C57.8039 45.5643 59.2094 46.6925 60.4556 48.2923C62.4947 50.91 63.3082 53.6568 62.896 56.5327C62.4894 59.3655 60.9447 61.814 58.2621 63.8783C56.872 64.948 55.1331 65.9953 53.0452 67.0205C50.9817 68.0268 49.8524 68.605 49.6573 68.7552C49.3159 69.0179 49.2699 69.6348 49.5193 70.6059L49.0071 71L41.9007 62.6283L42.5226 62.1498C45.2383 63.4328 48.039 64.2241 50.9246 64.5235C53.8346 64.8041 56.2163 64.2314 58.0698 62.8051Z" fill="black"/>
<path d="M4.25371 32.3211C7.59214 32.2505 9.26136 30.1855 9.26136 26.1262C9.26136 24.679 8.99499 22.7199 8.46227 20.249C7.96505 17.7428 7.71644 16.1367 7.71644 15.4307C7.71644 10.5948 11.0371 8.17685 17.6785 8.17685C19.7028 8.17685 21.3365 8.40629 22.5796 8.86517L22.3132 9.71234C21.5674 9.46525 20.8571 9.34171 20.1823 9.34171C18.2645 9.34171 17.3056 10.4889 17.3056 12.7833C17.3056 13.8423 17.5542 15.9602 18.0514 19.1371C18.5486 22.2787 18.7972 24.4495 18.7972 25.6497C18.7972 28.0853 18.1047 29.8149 16.7196 30.8386C15.37 31.8269 13.0437 32.4094 9.74081 32.5859V32.6917C12.9017 32.9388 15.1924 33.5919 16.613 34.6508C18.0691 35.6745 18.7972 37.4394 18.7972 39.9456C18.7972 41.0399 18.5486 43.2813 18.0514 46.67C17.5542 50.0234 17.3056 52.2825 17.3056 53.4473C17.3056 55.6006 18.3533 56.6772 20.4487 56.6772C21.23 56.6772 22.0113 56.536 22.7927 56.2536L23.059 57.1007C21.745 57.6655 20.2178 57.9479 18.4776 57.9479C11.3035 57.9479 7.71644 55.3888 7.71644 50.2705C7.71644 49.7057 7.96505 48.0996 8.46227 45.4522C8.99499 42.7695 9.26136 40.7222 9.26136 39.3102C9.26136 35.2862 7.59214 33.2389 4.25371 33.1683V32.3211Z" fill="#FFB800"/>
<path d="M27.638 57.7361L26.9987 56.9419C29.2007 55.0711 30.639 53.6062 31.3138 52.5472C31.9886 51.5236 32.326 50.394 32.326 49.1586C32.326 47.8878 31.7755 47.1818 30.6746 47.0406L28.1175 49.3174C27.3006 49.035 26.5548 48.5408 25.88 47.8349C25.2407 47.0936 24.9211 46.1582 24.9211 45.0286C24.9211 43.8638 25.3295 42.8754 26.1464 42.0635C26.9987 41.2517 28.153 40.8457 29.6091 40.8457C31.1007 40.8457 32.3083 41.4105 33.2317 42.5401C34.1551 43.6696 34.6168 45.1698 34.6168 47.0406C34.6168 48.9115 34.0663 50.7117 32.9653 52.4413C31.8643 54.171 30.0886 55.9359 27.638 57.7361ZM29.5558 32.48C28.0287 32.48 26.8744 32.0387 26.0931 31.1563C25.3473 30.2385 24.9744 29.1442 24.9744 27.8735C24.9744 26.5674 25.365 25.4732 26.1464 24.5907C26.9632 23.7082 28.0997 23.267 29.5558 23.267C31.012 23.267 32.1662 23.6376 33.0186 24.3789C33.8709 25.1202 34.2971 26.2321 34.2971 27.7146C34.2971 29.1972 33.8887 30.362 33.0718 31.2092C32.2905 32.0564 31.1185 32.48 29.5558 32.48Z" fill="#FFB800"/>
<path d="M55.8044 32.3211V33.1683C52.4659 33.2389 50.7967 35.2862 50.7967 39.3102C50.7967 40.7222 51.0453 42.7695 51.5425 45.4522C52.0753 48.0996 52.3416 49.7057 52.3416 50.2705C52.3416 55.3888 48.7546 57.9479 41.5805 57.9479C39.8403 57.9479 38.3131 57.6655 36.9991 57.1007L37.2654 56.2536C38.0467 56.536 38.8814 56.6772 39.7692 56.6772C41.7581 56.6772 42.7525 55.4947 42.7525 53.1297C42.7525 52.1766 42.5039 50.0234 42.0067 46.67C41.5095 43.2813 41.2609 41.0399 41.2609 39.9456C41.2609 37.4394 41.9712 35.6745 43.3918 34.6508C44.8479 33.5919 47.1564 32.9388 50.3173 32.6917V32.5859C47.0144 32.4094 44.6703 31.8269 43.2853 30.8386C41.9357 29.8149 41.2609 28.0853 41.2609 25.6497C41.2609 24.4495 41.5095 22.2787 42.0067 19.1371C42.5039 15.9602 42.7525 13.8423 42.7525 12.7833C42.7525 10.4889 41.7936 9.34171 39.8758 9.34171C39.201 9.34171 38.4907 9.46525 37.7449 9.71234L37.4785 8.86517C38.7215 8.40629 40.3552 8.17685 42.3796 8.17685C49.021 8.17685 52.3416 10.5948 52.3416 15.4307C52.3416 16.1367 52.0753 17.7428 51.5425 20.249C51.0453 22.7199 50.7967 24.679 50.7967 26.1262C50.7967 30.1855 52.4659 32.2505 55.8044 32.3211Z" fill="#FFB800"/>
<path d="M23.0565 0L35.0376 9.02869L34.5066 9.72485L32.479 8.19692L20.4041 24.0255C17.8885 27.3231 15.3035 29.1643 12.649 29.549C10.0131 29.9093 7.19603 28.9597 4.19767 26.7002C2.20696 25.2 0.910592 23.6268 0.308566 21.9806C-0.268883 20.353 -0.035855 18.8552 1.00765 17.4873C1.80892 16.4369 2.72808 15.8409 3.76513 15.6991C4.82082 15.5329 5.85249 15.8295 6.86014 16.5888C7.89236 17.3667 8.45858 18.1973 8.5588 19.0807C8.68359 19.9826 8.46648 20.7999 7.90746 21.5327C7.36707 22.2411 6.6822 22.8598 5.85283 23.3889L4.41509 22.3055C3.91439 22.5052 3.53361 22.776 3.27273 23.118C3.03049 23.4355 2.97594 23.8368 3.1091 24.3219C3.28547 24.801 3.64399 25.2443 4.18468 25.6517C5.16775 26.3925 6.08328 26.4862 6.93128 25.9327C7.82249 25.3733 9.24638 23.8112 11.203 21.2464L25.2903 2.77971L22.5254 0.696163L23.0565 0Z" fill="black"/>
</svg>
