<svg width="201" height="121" viewBox="0 0 201 121" fill="none" xmlns="http://www.w3.org/2000/svg">
<path d="M195.689 6.64351V3.00006H188.279C188.279 6.75778 185.243 9.80295 181.498 9.80295C177.753 9.80295 174.718 6.75778 174.718 3.00006H165.076C165.076 6.75778 162.041 9.80295 158.296 9.80295C154.551 9.80295 151.516 6.75778 151.516 3.00006H141.874C141.874 6.75778 138.839 9.80295 135.094 9.80295C131.349 9.80295 128.314 6.75778 128.314 3.00006H118.672C118.672 6.75778 115.637 9.80295 111.892 9.80295C108.147 9.80295 105.111 6.75778 105.111 3.00006H95.4702C95.4702 6.75778 92.4351 9.80295 88.6898 9.80295C84.9445 9.80295 81.9094 6.75778 81.9094 3.00006H72.2681C72.2681 6.75778 69.233 9.80295 65.4877 9.80295C61.7424 9.80295 58.7073 6.75778 58.7073 3.00006H49.0727C49.0727 6.75778 46.0376 9.80295 42.2923 9.80295C38.547 9.80295 35.5119 6.75778 35.5119 3.00006H25.8706C25.8706 6.75778 22.8355 9.80295 19.0902 9.80295C15.3449 9.80295 12.3098 6.75778 12.3098 3.00006H5.00009V7.53084C5.18769 7.51739 5.38199 7.50395 5.57629 7.50395C9.32159 7.50395 12.3567 10.5491 12.3567 14.3068C12.3567 18.0646 9.32829 21.1097 5.58299 21.1097C5.38869 21.1097 5.19439 21.0963 5.00679 21.0828V30.8099C5.19439 30.7965 5.38869 30.783 5.58299 30.783C9.32829 30.783 12.3634 33.8282 12.3634 37.5859C12.3634 41.3436 9.32829 44.3821 5.58299 44.3821C5.38869 44.3821 5.19439 44.3686 5.00679 44.3552V54.0822C5.19439 54.0688 5.38869 54.0553 5.58299 54.0553C9.32829 54.0553 12.3634 57.1005 12.3634 60.8582C12.3634 64.616 9.32829 67.6611 5.58299 67.6611C5.38869 67.6611 5.19439 67.6477 5.00679 67.6342V69.0661V71.8961V77.1462C5.19439 77.1327 5.38869 77.1193 5.58299 77.1193C9.32829 77.1193 12.3634 80.1645 12.3634 83.9222C12.3634 87.6799 9.32829 90.7251 5.58299 90.7251C5.38869 90.7251 5.19439 90.7116 5.00679 90.6982V94.2341V96.0154V99.706C5.19439 99.6925 5.38869 99.6791 5.58299 99.6791C9.32829 99.6791 12.3634 102.724 12.3634 106.482C12.3634 110.24 9.32829 113.285 5.58299 113.285C5.38869 113.285 5.19439 113.271 5.00679 113.258V117.789H12.3768C12.3768 117.735 12.3701 117.681 12.3701 117.621C12.3701 113.863 15.4052 110.818 19.1505 110.818C22.8958 110.818 25.9309 113.863 25.9309 117.621C25.9309 117.674 25.9242 117.728 25.9242 117.789H35.5789C35.5789 117.735 35.5722 117.681 35.5722 117.621C35.5722 113.863 38.6073 110.818 42.3526 110.818C46.0979 110.818 49.133 113.863 49.133 117.621C49.133 117.674 49.1263 117.728 49.1263 117.789H58.781C58.781 117.735 58.7743 117.681 58.7743 117.621C58.7743 113.863 61.8094 110.818 65.5547 110.818C69.3 110.818 72.3351 113.863 72.3351 117.621C72.3351 117.674 72.3284 117.728 72.3284 117.789H81.9831C81.9831 117.735 81.9764 117.681 81.9764 117.621C81.9764 113.863 85.0115 110.818 88.7568 110.818C92.5021 110.818 95.5372 113.863 95.5372 117.621C95.5372 117.674 95.5305 117.728 95.5305 117.789H105.185C105.185 117.735 105.178 117.681 105.178 117.621C105.178 113.863 108.214 110.818 111.959 110.818C115.704 110.818 118.739 113.863 118.739 117.621C118.739 117.674 118.733 117.728 118.733 117.789H128.387C128.387 117.735 128.381 117.681 128.381 117.621C128.381 113.863 131.416 110.818 135.161 110.818C138.906 110.818 141.941 113.863 141.941 117.621C141.941 117.674 141.935 117.728 141.935 117.789H151.589C151.589 117.735 151.583 117.681 151.583 117.621C151.583 113.863 154.618 110.818 158.363 110.818C162.108 110.818 165.143 113.863 165.143 117.621C165.143 117.674 165.137 117.728 165.137 117.789H174.791C174.791 117.735 174.785 117.681 174.785 117.621C174.785 113.863 177.82 110.818 181.565 110.818C185.311 110.818 188.346 113.863 188.346 117.621C188.346 117.674 188.339 117.728 188.339 117.789H195.709V112.431C191.964 112.431 188.928 109.386 188.928 105.628C188.928 101.871 191.964 98.8253 195.709 98.8253V96.0222V94.2408V89.8781C191.964 89.8781 188.928 86.8329 188.928 83.0752C188.928 79.3175 191.964 76.2723 195.709 76.2723V71.9028V69.0728V66.8141C191.964 66.8141 188.928 63.769 188.928 60.0112C188.928 56.2535 191.964 53.2083 195.709 53.2083V43.5283C191.964 43.5283 188.928 40.4832 188.928 36.7254C188.928 32.9677 191.964 29.9226 195.709 29.9226V20.2493C191.964 20.2493 188.928 17.2041 188.928 13.4464C188.928 9.68867 191.943 6.64351 195.689 6.64351Z" fill="#EDEDED" stroke="#D8D8D8" stroke-miterlimit="10"/>
<path d="M172.536 100.842H27.4336C24.432 100.842 21.9999 98.4015 21.9999 95.3899V25.4519C21.9999 22.4403 24.432 20.0002 27.4336 20.0002H172.542C175.544 20.0002 177.976 22.4403 177.976 25.4519V95.3832C177.976 98.4015 175.537 100.842 172.536 100.842Z" fill="white" stroke="#D8D8D8" stroke-miterlimit="10"/>
<path d="M96.8369 43.2275L96.7314 43.4121L96.5117 43.377L96.4766 43.21L96.6348 43.1572L96.8369 43.2275ZM97.1094 42.1465L97.0918 42.2783L96.96 42.3662L96.7314 42.4189L96.4766 42.4365L96.2041 42.5068H95.958L95.6855 42.5244L95.3428 42.6035L95.1406 42.542L94.8945 42.6211L94.71 42.7441L94.6221 42.8848V43.0518L94.6045 43.3242L94.5342 43.4648V43.6758L94.4814 43.9131L94.3848 44.2559L94.3496 44.5459V45.6797L94.3672 45.9521L94.3496 46.2861L94.2793 46.541L94.2617 46.7432L94.2266 47.0859L94.2969 47.6924L94.3672 47.8418L94.4814 48.0879L94.6572 48.2197L94.9824 48.3428L95.1758 48.3252H95.5625L95.4658 48.4658L95.1582 48.5801H94.7451L94.4814 48.5361L94.209 48.4482L93.9541 48.29L93.6904 48.2021L93.418 47.9121L93.2861 47.6221L93.2686 47.2969L93.1982 46.9717L93.1279 46.7432L93.1631 46.4004V46.04L93.1279 45.7676L93.1807 45.5127L93.0928 45.1699L93.0576 44.7744L93.04 44.458L93.0576 44.168L93.1279 43.8428V42.709L92.8906 42.7441L92.6621 42.8145L92.4072 42.9023L92.2314 43.0342L92.0645 43.0693L91.9414 43.0518L91.8711 42.9639V42.8672L91.9062 42.709L92.0117 42.6035L92.1963 42.5068L92.3896 42.5244L92.627 42.4717L92.8555 42.4365L93.1279 42.4189L93.1631 42.2607L93.1279 42.0059L93.1631 41.7158L93.1807 41.3379L93.1631 41.0918L93.1279 40.8721L93.0576 40.6523V40.459L93.1631 40.2393L93.418 40.1162L93.5938 39.9316L93.8662 39.8262L94.0859 39.8438L94.2793 39.9316L94.4814 40.0635L94.5518 40.1865L94.6924 40.3535L94.7451 40.4941L94.877 40.7139L94.9121 40.8193L94.8945 41.0742L94.8242 41.2676L94.7979 41.4873L94.71 41.6631L94.7451 41.8301L94.8945 41.9355L95.1406 41.9883L95.3779 41.9531H96.0459L96.2393 41.9883L96.582 42.0059L96.8369 42.0762L96.96 42.0938L97.1094 42.1465ZM100.229 43.3418L100.124 43.377L100.01 43.2803L100.08 43.21L100.194 43.2275L100.229 43.3418ZM102.031 45.3018L101.996 45.6094L101.935 45.8906L101.812 46.1104L101.724 46.3477L101.574 46.5938L101.363 46.7432L101.223 46.9541L100.933 47.1035L100.643 47.209L100.3 47.2441L99.957 47.2969L99.6318 47.332L99.2891 47.2617L99.0078 47.209L98.7354 47.1035L98.5156 47.0068L98.2871 46.7959L98.085 46.5586L97.874 46.4355L97.7246 46.1982L97.6191 45.9521L97.4961 45.7148L97.4785 45.4424L97.4521 45.0996L97.4961 44.8535L97.584 44.5107V44.168L97.6895 43.8252L97.874 43.2803L98.0674 43.1045L98.1025 42.9023L98.2871 42.7617L98.5156 42.6035L98.7354 42.4717L99.0605 42.4014L99.2715 42.4365L99.4561 42.542L99.5615 42.7441L99.5967 42.9199L99.5791 43.1572L99.4385 43.3418L99.2715 43.5527L99.166 43.79L99.1484 44.0186L98.9727 44.1855L98.876 44.5107L98.7881 44.7217L98.7705 45.0469V45.3193L98.8232 45.6094L98.9463 45.8379L99.0957 46.0225L99.2891 46.1631L99.4736 46.3477L99.7021 46.418L99.9922 46.4355L100.027 46.4883L100.353 46.4707L100.643 46.418L100.968 46.1982L101.161 46.0049L101.311 45.7148L101.363 45.4424V45.082L101.275 44.8711L101.126 44.5986L100.968 44.3789L100.766 44.1855L100.555 44.0186L100.388 43.8955L100.265 43.79L100.229 43.6055L100.3 43.4824H100.467L100.625 43.5879L100.845 43.6758L100.985 43.79L101.275 43.9834L101.469 44.1328L101.601 44.3262L101.759 44.5635L101.899 44.7744L101.979 44.9766L102.031 45.3018ZM105.89 42.3486L105.854 42.5068L105.529 42.7969L105.441 42.9639L105.31 43.1572L105.239 43.21L105.116 43.4121L104.932 43.5527L104.773 43.6406L104.571 43.6758L104.325 43.623L104.176 43.5L104.088 43.2451L104.035 43.1572L103.93 43.0518L103.815 42.9639L103.763 42.8672V42.7441L103.71 42.6035L103.692 42.4014L103.912 42.2256L104.325 41.9707L104.703 41.8037H105.187L105.397 41.8828L105.477 42.0059L105.67 42.0586L105.854 42.1465L105.89 42.3486ZM105.89 47.2793L105.854 47.4639L105.529 47.7451L105.441 47.9121L105.31 48.0879L105.239 48.1582L105.116 48.3428L104.932 48.4834L104.773 48.5977L104.571 48.6152L104.325 48.5801L104.176 48.4482L104.088 48.2021L104.035 48.0879L103.815 47.9121L103.763 47.7979V47.6748L103.71 47.5342L103.692 47.3496L103.912 47.1562L104.325 46.9189L104.703 46.7432H105.187L105.397 46.8311L105.477 46.9541L105.67 46.9893L105.854 47.1035L105.89 47.2793ZM105.397 48.6855L105.31 48.7559L105.204 48.6152L105.292 48.5537L105.397 48.5977V48.6855ZM69.5137 79.1172L69.4375 79.168H69.2471L69.0439 79.0664L68.7773 78.9141L68.1045 78.4189L67.6348 78L67.1396 77.3779L66.7588 76.8574L66.4414 76.3115L66.0479 75.8926L65.502 75.2197L64.8799 74.623L64.3086 74.1025L63.8643 73.5312L63.2168 72.7695L62.7471 72.0713L62.252 71.4492L61.7822 70.8779L61.2363 70.4082L60.6396 70.0654H60.0684L60.043 70.4336L59.8652 71.0303L59.7129 71.9697L59.6875 72.541L59.5479 73.0361L59.3701 74.3564L59.3193 75.1182V75.5879L59.2432 76.6543V76.9082L59.3701 77.1113L59.5732 77.3525L59.6875 77.6826L59.624 77.873L59.4971 78.0508L59.2686 78.1523L59.0273 78.1016L58.8496 77.9492L58.7227 77.7461L58.4053 77.2256L58.3545 76.5908V75.8164L58.4053 74.5977L58.5322 74.1025L58.5957 73.7852V73.1631L58.6719 72.7949L58.748 72.4141L58.7734 71.9951L58.9004 71.4492L58.9512 70.8525L59.0781 70.2051L59.1162 69.5195L59.2432 69.0879L59.2686 68.5928V67.9961L59.3447 67.3867L59.3701 66.7393L59.624 65.3936L59.7129 64.8984V64.4033L59.7383 63.7051L59.916 63.2354L60.0684 62.791L59.9668 62.3467L60.0684 61.877L59.8652 61.3818L59.9414 60.9756L60.1445 60.6074L60.6904 60.5566L61.2363 60.1885L61.7568 60.1123L62.4932 60.0869L63.2676 60.1123L64.1309 60.1885L64.5498 60.3662L64.9053 60.5059L65.2734 60.7852L65.6924 61.1787L65.9463 61.6484L66.2129 62.1436L66.4414 62.791V63.21L66.6699 63.7051L66.6445 64.2764L66.708 64.5557L66.6445 65.127L66.543 65.6221L66.4668 66.1934L66.4414 66.7139L66.3398 67.1582L66.0986 67.7041L65.7432 68.1484L65.375 68.4023L64.9814 68.7197L64.6006 68.9229L64.2324 69.1641V69.6592L64.3594 70.04L64.5117 70.4336L64.6006 70.8018L64.9561 71.6777L65.502 72.5918L65.7432 73.0107L65.9717 73.5312L66.3398 74.2041L66.543 74.623L66.8857 75.1182L67.0635 75.6641L67.2793 76.1592L67.6094 76.6797L67.876 77.1113L68.2822 77.6064L68.7773 78.0762L69.1201 78.4443L69.374 78.7744L69.4883 78.9395L69.5137 79.1172ZM61.0586 72.1729L61.0332 72.3633L60.8301 72.2998L60.8047 72.1729L61.0078 71.9951L61.0586 72.1729ZM64.3594 64.5811L64.1816 64.0352L64.3086 63.4893L64.1816 63.2607V62.2959L63.915 61.9023L63.3945 61.75L62.9629 61.5723L62.7471 61.6738L62.5693 61.6484L61.7568 61.9277L61.6045 62.1689L61.5029 62.4736L61.4014 62.8926L61.2998 63.4385V63.9082L61.0078 65.2539L60.7539 65.9141L60.5889 66.46L60.5381 67.082L60.5889 67.3867L60.5381 67.8057L60.8047 68.0215L61.1855 68.123L61.5283 67.9326L62.1504 67.7803L62.9629 67.6279L63.3945 67.3359L63.8643 66.9551L64.0293 66.5615L63.9404 66.3203L64.0293 66.0664V65.5967L64.0547 65.1523L64.3594 64.5811ZM64.1309 63.8574L63.915 63.9844L63.7881 63.8066L63.915 63.5908L64.1309 63.6797V63.8574ZM70.1738 63.959L69.9707 64.0859L69.7549 64.0352L69.8184 63.8066L69.9961 63.7305L70.1738 63.959ZM71.4561 64.4287L71.4053 64.6318L71.1895 64.873L71.0117 65.127V65.3682L71.1387 65.5967L71.2656 65.7744V66.1426L71.1387 66.46L70.9355 66.7139L70.6689 66.9297L70.3389 66.9551L69.9707 66.9297L69.7549 66.79L69.501 66.6123L69.2725 66.3457L68.9805 65.9902L68.8535 65.6475L68.8027 65.3936L68.8535 65.1523L68.9805 64.873L69.1582 64.6572L69.5264 64.4541L69.8438 64.4033L70.3135 64.3525L70.7705 64.2256L71.0879 64.2002L71.3164 64.2256L71.4561 64.4287ZM71.6084 69.9385L71.5322 70.0654L71.2656 70.2051L71.0879 70.3574L71.0117 70.6621L70.9609 71.0811L70.8213 71.5L70.9102 71.8682L70.7959 72.1729L70.7705 72.5918L70.7197 73.0361V73.4805L70.7705 74.0264L70.7197 74.4326V74.877L70.7959 75.2197L70.9102 75.5498L70.7959 75.9434L70.9355 76.2861V76.8828L70.9609 77.1113L71.0625 77.4541L71.0879 77.8223L71.1895 78.0762V78.3174L71.291 78.5459L71.1641 78.7744L71.0117 78.8379L70.9102 78.7744L70.7959 78.5205L70.7197 78.2285L70.6689 78L70.542 77.7461V77.5049L70.3643 77.1113V76.7559L70.3135 76.4893V76.1338L70.2246 75.8164L70.1738 75.042L70.123 74.8262L70.0977 74.3311L70.123 74.001L70.0977 73.6328V73.3154L69.9707 73.0615L69.7549 72.9346L69.6025 72.7695L69.4502 72.2744L69.3994 71.9951V70.9795L69.4502 70.5352L69.374 70.0654L69.3486 69.7607L69.2471 69.4688L69.3486 69.1641L69.501 68.9229L69.7041 68.8467L69.9961 68.7705L70.3135 68.8467L70.542 69.0498L70.7705 69.2402H71.0625L71.2656 69.4434L71.4561 69.5703L71.6084 69.71V69.9385ZM80 71.0557L79.9492 71.3984L79.8223 71.6523L79.4795 72.249L79.124 72.3633H78.6289L78.21 72.2236L77.8799 72.1729L77.4355 72.0459H77.042L76.7754 72.1475L76.3184 72.4141L76.0518 72.6934L75.7725 73.0615L75.582 73.4297L75.4805 73.7344L75.4043 73.9502L75.2266 74.1025L75.1123 74.623L75.0869 75.0039V75.7402L75.252 76.1338L75.582 76.4639L75.874 76.5908L76.3184 76.7305L76.5977 76.8574H77.5625L77.9814 76.7812L78.21 76.6797L78.3877 76.54L78.6289 76.5654L78.7559 76.7812L78.7051 76.959L78.4512 77.1621L78.1084 77.3271L77.6641 77.5049L77.2705 77.6318L76.9404 77.6826L76.293 77.7461L75.6836 77.6826L75.3281 77.5303L74.9854 77.3779L74.6299 77.1367L74.3633 77.0352L74.2109 76.6797L74.0459 76.3623L73.9443 75.9941L73.8936 75.5244L73.7666 75.0039L73.6904 74.4326V74.0264L73.665 73.4805L73.6904 73.0615L73.7666 72.6172L73.9443 72.249L74.0205 71.9951V71.5L74.1348 71.1318L74.6299 70.7002L74.8584 70.5859L75.0361 70.5352L75.5059 70.3574L75.8232 70.2559L76.1025 70.2305L76.5723 70.1162L77.042 69.9385L77.4102 69.8369L77.791 69.7354L78.1592 69.7607L78.5781 69.8369L78.9717 69.9639L79.3525 70.2559L79.6699 70.459L79.9238 70.7256L80 71.0557ZM73.3223 72.1729L73.1953 72.3633L73.0684 72.249L72.9287 72.0967L73.0938 71.9189H73.3223V72.1729ZM88.5566 77.6826L88.5059 77.873L88.3154 77.8984H87.9854L87.6172 77.7461L87.2236 77.5303L87.1221 77.3018L86.8047 77.0605L86.5508 76.7051L86.208 76.3877L85.7383 75.7148L85.5605 75.3975L85.2559 75.1436L84.8877 74.877L84.5957 74.623L84.2656 74.4072L83.7451 73.9121L83.3008 73.4297L83.2246 75.1689L83.1738 75.499V76.6797L83.0977 77.0352L83.0342 77.8984L82.958 78.292L82.7295 79.3203L82.7041 79.6631L82.5771 79.9805L82.3359 80.0312L82.1328 79.9805L82.082 79.7139V79.2695L82.3359 78.7236L82.4629 78.2539V77.8223L82.5264 77.3018L82.4883 76.832L82.5264 76.21V75.499L82.4883 74.8008L82.3867 73.9502L82.1328 73.3662L82.1074 72.7695V72.0459L82.1328 71.5762L82.1836 71.1318L82.082 70.6621V70.1162L82.1074 69.5195L82.1328 69.2656L82.1074 68.7705L81.9678 68.3516L81.9424 67.8818V67.1074L81.79 66.5107L81.8662 65.7236L81.5869 65.292L81.6123 64.6064V64.1621L81.5615 63.7305L81.6631 63.1338L81.5869 62.6133L81.7393 62.2451L82.0059 61.9531L82.2598 61.623L82.5518 61.2803L82.9072 61.1533L83.3008 61.2295L83.5547 61.3564L83.9229 61.5723L84.2402 61.877L84.4688 62.2451L84.5957 62.5498L84.6211 62.8926L84.4941 63.2607L84.3926 63.6162L84.2402 64.0859L84.0244 64.5049L83.999 64.9492L83.8721 65.3428L83.7451 65.9141L83.7959 66.3203L83.6182 66.8408L83.3262 67.2852V67.9326L83.2754 68.1738L83.3008 68.5674V69.8623L83.2754 70.2305L83.3516 70.8271L83.3008 71.4238L84.2402 70.9033L84.5957 70.5352L84.8623 70.4336L85.1162 70.2305L85.8018 69.9385L86.0303 69.7354L86.2842 69.71L86.5508 69.5703L86.8682 69.5195L87.2236 69.4941L87.5156 69.5195L87.7695 69.6338L87.96 69.8369L88.0107 70.0146L87.8965 70.2305L87.7188 70.3574L87.3506 70.4844L86.9951 70.6621L86.6523 70.8271L86.4238 71.0557L86.0811 71.2715L85.8271 71.2969L85.5605 71.5254L85.2178 71.7539L84.8877 72.0459L84.5195 72.3887L84.3418 72.6426L84.2402 72.8457V73.0615L84.418 73.3154L84.5957 73.4551L84.9639 73.7344L85.2178 74.1025L85.5605 74.4072L86.3984 75.3975L86.5762 75.7402L86.9189 76.0957L87.1729 76.4385L87.4648 76.5908L87.7695 76.8574L88.0869 77.0352L88.2393 77.3018L88.4678 77.5303L88.5566 77.6826ZM107.955 79.1172L107.879 79.168H107.688L107.485 79.0664L107.219 78.9141L106.546 78.4189L106.076 78L105.581 77.3779L105.2 76.8574L104.883 76.3115L104.489 75.8926L103.943 75.2197L103.321 74.623L102.75 74.1025L102.306 73.5312L101.658 72.7695L101.188 72.0713L100.693 71.4492L100.224 70.8779L99.6777 70.4082L99.0811 70.0654H98.5098L98.4844 70.4336L98.3066 71.0303L98.1543 71.9697L98.1289 72.541L97.9893 73.0361L97.8115 74.3564L97.7607 75.1182V75.5879L97.6846 76.6543V76.9082L97.8115 77.1113L98.0146 77.3525L98.1289 77.6826L98.0654 77.873L97.9385 78.0508L97.71 78.1523L97.4688 78.1016L97.291 77.9492L97.1641 77.7461L96.8467 77.2256L96.7959 76.5908V75.8164L96.8467 74.5977L96.9736 74.1025L97.0371 73.7852V73.1631L97.1133 72.7949L97.1895 72.4141L97.2148 71.9951L97.3418 71.4492L97.3926 70.8525L97.5195 70.2051L97.5576 69.5195L97.6846 69.0879L97.71 68.5928V67.9961L97.7861 67.3867L97.8115 66.7393L98.0654 65.3936L98.1543 64.8984V64.4033L98.1797 63.7051L98.3574 63.2354L98.5098 62.791L98.4082 62.3467L98.5098 61.877L98.3066 61.3818L98.3828 60.9756L98.5859 60.6074L99.1318 60.5566L99.6777 60.1885L100.198 60.1123L100.935 60.0869L101.709 60.1123L102.572 60.1885L102.991 60.3662L103.347 60.5059L103.715 60.7852L104.134 61.1787L104.388 61.6484L104.654 62.1436L104.883 62.791V63.21L105.111 63.7051L105.086 64.2764L105.149 64.5557L105.086 65.127L104.984 65.6221L104.908 66.1934L104.883 66.7139L104.781 67.1582L104.54 67.7041L104.185 68.1484L103.816 68.4023L103.423 68.7197L103.042 68.9229L102.674 69.1641V69.6592L102.801 70.04L102.953 70.4336L103.042 70.8018L103.397 71.6777L103.943 72.5918L104.185 73.0107L104.413 73.5312L104.781 74.2041L104.984 74.623L105.327 75.1182L105.505 75.6641L105.721 76.1592L106.051 76.6797L106.317 77.1113L106.724 77.6064L107.219 78.0762L107.562 78.4443L107.815 78.7744L107.93 78.9395L107.955 79.1172ZM99.5 72.1729L99.4746 72.3633L99.2715 72.2998L99.2461 72.1729L99.4492 71.9951L99.5 72.1729ZM102.801 64.5811L102.623 64.0352L102.75 63.4893L102.623 63.2607V62.2959L102.356 61.9023L101.836 61.75L101.404 61.5723L101.188 61.6738L101.011 61.6484L100.198 61.9277L100.046 62.1689L99.9443 62.4736L99.8428 62.8926L99.7412 63.4385V63.9082L99.4492 65.2539L99.1953 65.9141L99.0303 66.46L98.9795 67.082L99.0303 67.3867L98.9795 67.8057L99.2461 68.0215L99.627 68.123L99.9697 67.9326L100.592 67.7803L101.404 67.6279L101.836 67.3359L102.306 66.9551L102.471 66.5615L102.382 66.3203L102.471 66.0664V65.5967L102.496 65.1523L102.801 64.5811ZM102.572 63.8574L102.356 63.9844L102.229 63.8066L102.356 63.5908L102.572 63.6797V63.8574ZM113.846 74.6484L113.693 74.75L113.554 74.6992V74.5469L113.795 74.4326L113.846 74.6484ZM113.922 76.9082L113.896 77.0859L113.719 77.2764H113.528L113.325 77.0605L113.224 76.7305L113.059 76.4639L112.957 76.0957L112.855 75.9941L112.703 76.0703L112.487 76.21L112.259 76.4893L111.891 76.7051L111.662 76.9336L111.269 77.1367L110.824 77.3018L110.443 77.4287L110.101 77.5303L109.847 77.6318L109.58 77.5557L109.212 77.5049L108.78 77.3271L108.387 77.0859L108.146 76.7812L107.968 76.4385L107.942 75.8926V75.5244L108.019 75.1182L108.26 74.6992L108.488 74.3057L108.806 74.0264L109.136 73.7852L109.58 73.709L109.974 73.6582L110.418 73.5566L110.799 73.3154L111.294 73.0615L111.535 72.96L111.789 72.8838L111.891 72.6172L111.688 72.249L111.446 71.9189L110.938 71.4492L110.418 71.2969L109.999 71.2715L109.847 71.2969H109.58L109.263 71.4492L108.983 71.627L108.641 71.6777H108.26L107.815 71.792H107.422L107.104 71.627L106.876 71.3984L106.851 71.0811L106.927 70.8018L107.193 70.4844L107.473 70.1162L107.815 69.8369L108.196 69.6338L108.615 69.291L109.009 69.1133L109.732 68.9736L110.354 68.9229L110.799 69.0498L111.167 69.2402L111.561 69.3672L112.005 69.6592L112.233 69.8877L112.462 70.2559L112.627 70.7256L112.754 71.1826L112.932 71.792L113.097 72.249L113.122 72.6426L113.097 73.1377L113.224 73.709L113.3 74.3057L113.528 75.3467L113.668 75.7402L113.795 76.0957L113.896 76.54L113.922 76.9082ZM112.83 76.832L112.729 76.9082L112.513 76.832L112.576 76.6797L112.729 76.5908L112.83 76.832ZM112.157 74.2041L112.056 74.0518L111.688 73.9502L111.37 73.9756L111.091 74.1025L110.773 74.2041L110.443 74.3818L110.126 74.4326L109.847 74.5723L109.605 74.75L109.453 74.9785L109.263 75.2705L109.212 75.5244L109.11 75.7656V76.0703L109.237 76.3369L109.58 76.4385H109.948L110.354 76.3369L110.545 76.1338L110.799 76.0703L111.396 75.6641L111.688 75.4736L111.891 75.1436L112.106 74.877L112.132 74.5215L112.157 74.2041ZM122.517 76.5146L122.415 76.6543L122.288 76.7559L122.021 76.7305L121.793 76.5146L121.717 76.2861L121.691 75.9434V75.6641L121.59 75.2959L121.564 74.9277V74.5977L121.45 74.2549L121.425 73.8613L121.222 73.2393L121.171 72.2998L120.955 71.6523L120.65 71.373L120.282 71.208L120.13 71.0049L119.863 70.8779L119.457 71.0049L119.165 71.1064L118.911 71.3984L118.645 71.7031L118.314 72.1729L118.175 72.4902L118.099 72.7695L118.048 73.0361L117.845 73.3154L117.604 73.6074L117.502 74.0264L117.477 74.4961V74.9531L117.426 75.5244L117.4 76.0449V76.5146L117.426 76.959L117.527 77.3525L117.604 77.6826L117.629 78L117.502 78.1523L117.4 78.292L117.159 78.3428H116.931L116.778 78.2285L116.651 78.0762L116.512 77.6318L116.436 77.2764L116.334 76.54V76.2607L116.283 75.9434L116.232 75.5244V75.042L116.182 74.5977V74.2549L116.156 73.9121L116.067 73.5312V73.0615L116.042 72.6426V71.0303L115.94 70.7256L115.788 70.4844L115.687 70.2812L115.585 70.0146L115.547 69.71L115.585 69.4688L115.712 69.2402L115.864 69.0879L116.156 68.8721L116.512 68.8467L116.88 68.8721L117.159 69.0498L117.426 69.2402L117.705 69.5195L117.845 69.71L117.946 70.0146L118.226 70.1543L118.492 70.0654L118.86 70.0146L119.216 69.9131L119.559 69.8115L120.003 69.7607L120.358 69.71L120.727 69.8369L120.904 70.04L121.069 70.4082L121.196 70.6621L121.247 71.0303L121.374 71.2715L121.564 71.5762L121.691 71.9951L121.717 72.3633L121.742 72.7695L121.818 73.1631L121.844 73.5566L121.945 73.9121L121.971 74.2549V74.623L122.021 74.9785L122.161 75.3467L122.212 75.7148L122.415 75.9941L122.517 76.2861V76.5146ZM121.349 76.8828L121.247 77.0352L121.12 77.0859L121.019 76.8828L121.222 76.6797L121.349 76.8828ZM132.165 62.5244L132.025 63.21L131.873 64.1621L131.619 64.8223L131.454 65.4697L131.276 66.168L131.124 67.0059V67.7549L131.073 68.4785L131.099 68.9229L131.048 69.6338L130.997 70.4844L130.857 71.0811L130.959 72.4902L130.908 73.0869L130.883 73.7344L130.807 74.4961L130.73 75.042L130.68 75.5244L130.629 76.3623L130.73 77.1113L130.857 78.6221L130.959 78.9902L131.099 79.1172L131.022 79.4346L130.807 79.5869L130.578 79.4092L130.502 79.0664L130.477 78.6729L130.337 78.3936L130.21 77.5303L130.108 77.0605L129.905 76.6543L129.715 76.9336L129.512 77.1367L129.067 77.251L128.725 77.3018L128.001 77.5557H127.506L126.808 77.3525L126.312 77.3018L126.135 76.959L125.741 76.7559L125.5 76.5654L125.322 76.1338L125.005 75.791L124.827 75.3467L124.599 74.9531L124.624 74.4326L124.497 73.709L124.649 72.9346L124.827 72.541L125.068 71.8428L125.563 71.373L126.135 71.208L126.49 71.0049L127.277 70.7256L127.798 70.8271L128.153 70.8018L128.547 71.0303L129.144 71.1318L129.664 71.4238L129.613 70.6621L129.664 69.9131L129.689 69.291L129.639 67.9961L129.562 67.3867V66.6123L129.689 65.7744V65.2285L129.613 64.5557L129.512 63.9082L129.169 63.0449L129.118 62.5498V62.2705L129.144 61.9023L129.271 61.5469L129.512 61.3311L130.134 61.3564L130.68 61.6738L131.251 61.4961L131.949 61.8516L132.165 62.5244ZM127.062 68.8975L126.935 69.5703L126.706 69.7354V69.9385L126.782 70.3066L126.439 70.459H126.16L125.792 70.2051L125.741 69.7607V69.4941L125.843 68.6943L126.021 68.3516L126.49 68.3262L126.884 68.542L127.062 68.8975ZM129.689 74.623V73.5566L129.639 73.0361L129.461 72.6934L129.436 72.1729L129.271 71.7539L128.89 71.7031H128.344L127.709 71.9189L127.062 72.4141L126.681 72.8457L126.414 73.2646L126.287 73.709L125.995 74.1533L125.944 74.5723L126.021 74.9785L126.16 75.2705L126.363 75.499L126.985 76.1338L127.899 76.3877L128.496 76.3623H128.864L129.245 76.3369L129.562 76.3877L129.486 75.9434L129.639 75.8672V75.1182L129.689 74.623ZM133.066 72.2744L132.939 72.4141L132.787 72.3633L132.622 72.2236L132.812 72.0459L132.99 72.0967L133.066 72.2744ZM140.379 76.959L140.354 77.3271L140.239 78V78.292L140.163 78.6475L140.188 78.9902L140.138 79.2949L140.011 79.4854V79.8408L139.935 80.2852L139.808 80.6787L139.592 81.123L139.541 81.3516L139.414 81.542L139.287 81.7705L139.097 82.0244L138.843 82.291L138.767 82.4941L138.525 82.7354L138.322 82.9639L138.081 83.1797L137.853 83.3574L137.535 83.4844L137.357 83.6621L137.015 83.8018L136.583 83.9033L136.164 83.8779L135.123 83.7002L134.679 83.5605L134.399 83.5098L134.107 83.2305L133.955 83.1797L133.828 82.9893L133.739 82.6846L133.714 82.418V81.9229L133.739 81.5039L133.828 81.3262L133.904 81.1992L134.006 81.123L134.107 81.1992V81.3516L134.082 81.5928L134.133 81.8213V82.1641L134.082 82.3672L134.209 82.7354L134.374 82.8877L134.577 82.9893L134.806 83.1797L135.021 83.2051H135.199L135.466 83.2812H135.771L136.139 83.332L136.469 83.2305L136.735 83.2051L137.078 83.2812L137.256 83.0654L137.459 82.9131L137.7 82.7861L137.903 82.6338L138.221 82.1641L138.602 81.7197L138.627 81.4531L138.817 81.2754L138.919 81.0215L139.046 80.8311V80.6279L139.173 80.2598L139.312 79.9805L139.389 79.6123L139.49 79.168L139.439 78.8887L139.566 78.5459V78.1016L139.592 77.708L139.643 77.3271L139.566 76.8574L139.465 76.5146L139.389 76.2861L139.236 76.0703L139.147 75.9941L139.021 76.0703L138.792 76.2861L138.576 76.4893L138.271 76.5908L138.03 76.7812L137.802 76.9082L137.535 76.959L137.408 77.0859L137.078 77.1621L136.71 77.3018H136.291L135.872 77.1367L135.491 76.959L135.275 76.9336L135.123 76.7305L134.971 76.6797L134.679 76.4385L134.374 76.2607L134.184 75.918L134.031 75.6641L133.93 75.3975L133.828 75.042L133.739 74.5977V74.1533L133.587 73.7344V73.3154L133.511 73.0615L133.46 72.6426L133.358 72.2744L133.117 71.9189L133.041 71.627L132.939 71.2969L132.99 71.0557L133.041 70.8525L133.193 70.6113L133.435 70.4336L133.765 70.3066L134.133 70.3574L134.425 70.4336L134.729 70.6621L134.92 70.9287L135.072 71.2715L135.326 71.792L135.466 72.2236L135.517 72.8457L135.491 73.2393L135.542 73.709L135.669 73.7598L135.771 74.1533L135.897 74.4072L135.923 74.623L136.139 74.8008L136.443 74.9785L136.812 75.1182L137.129 74.9785L137.434 74.9277L137.726 74.8008L137.979 74.623L138.322 74.5469L138.792 74.5723L138.995 74.3818L139.147 74.1533L139.287 74.001V73.6328L139.236 73.2393L139.147 72.7695L139.046 72.2998L138.97 71.8428V71.5L138.792 70.8779L138.576 70.5352V70.2812L138.69 70.0146L138.868 69.8369L139.173 69.8877L139.363 70.0146L139.465 70.2305L139.617 70.459L139.757 70.6621L139.833 70.9033L139.985 71.1826L140.062 71.5L140.138 71.792L140.188 72.1729L140.138 72.541V72.8838L140.188 73.3154L140.163 73.6582L140.188 74.0264L140.239 74.3311L140.265 74.7246L140.239 75.0928L140.265 75.499L140.354 75.8672L140.239 76.2607L140.328 76.5908L140.379 76.959Z" fill="#112437"/>
</svg>
